# AST/ASF file generated using VICON BodyLanguage
# -----------------------------------------------
:version 1.10
:name VICON
:units
  mass 1.0
  length 0.45
  angle deg
:documentation
   .ast/.asf automatically generated from VICON data using
   VICON BodyBuilder and BodyLanguage model FoxedUp or BRILLIANT.MOD
:root
   order TX TY TZ RX RY RZ
   axis XYZ
   position 0 0 0  
   orientation 0 0 0 
:bonedata
  begin
     id 1 
     name lhipjoint
     direction 0.692814 -0.645514 0.321437 
     length 2.38754 
     axis 0 0 0  XYZ
  end
  begin
     id 2 
     name lfemur
     direction 0.34202 -0.939693 0  
     length 6.41921  
     axis 0 0 20  XYZ
    dof rx ry rz
    limits (-160.0 20.0)
           (-70.0 70.0)
           (-60.0 70.0)
  end
  begin
     id 3 
     name ltibia
     direction 0.34202 -0.939693 0   
     length 6.98247   
     axis 0 0 20   XYZ
    dof rx
    limits (-10.0 170.0)
  end
  begin
     id 4 
     name lfoot
     direction 0.0947186 -0.260237 0.960888   
     length 1.83034   
     axis -90 7.62852e-016 20   XYZ
    dof rx rz
    limits (-45.0 90.0)
           (-70.0 20.0)
  end
  begin
     id 5 
     name ltoes
     direction 1.53538e-011 -4.21952e-011 1   
     length 0.920499   
     axis -90 7.62852e-016 20   XYZ
    dof rx
    limits (-90.0 20.0)
  end
  begin
     id 6 
     name rhipjoint
     direction -0.631686 -0.693949 0.345555   
     length 2.2209  
     axis 0 0 0  XYZ 
  end
  begin
     id 7 
     name rfemur
     direction -0.34202 -0.939693 0   
     length 6.49542   
     axis 0 0 -20   XYZ
    dof rx ry rz
    limits (-160.0 20.0)
           (-70.0 70.0)
           (-70.0 60.0)
  end
  begin
     id 8 
     name rtibia
     direction -0.34202 -0.939693 0   
     length 7.21712   
     axis 0 0 -20   XYZ
    dof rx
    limits (-10.0 170.0)
 end
 begin
     id 9 
     name rfoot
     direction -0.0825378 -0.226771 0.970444   
     length 1.89724  
     axis -90 -7.62852e-016 -20   XYZ
    dof rx rz
    limits (-45.0 90.0)
           (-20.0 70.0)
  end
  begin
     id 10 
     name rtoes
     direction -1.53515e-011 -4.22016e-011 1   
     length 0.955868   
     axis -90 -7.62852e-016 -20   XYZ
    dof rx
    limits (-90.0 20.0)
  end
  begin
     id 11 
     name lowerback
     direction -0.0104711 0.984802 -0.173368   
     length 1.84931   
     axis 0 0 0   XYZ
    dof rx ry rz
    limits (-20.0 45.0)
           (-30.0 30.0)
           (-30.0 30.0)
  end
  begin
     id 12 
     name upperback
     direction -0.00286433 0.999996 -0.000382853   
     length 1.85768   
     axis 0 0 0   XYZ
    dof rx ry rz
    limits (-20.0 45.0)
           (-30.0 30.0)
           (-30.0 30.0)
  end
  begin
     id 13 
     name thorax
     direction 0.00167534 0.996793 0.0800069   
     length 1.92   
     axis 0 0 0   XYZ
    dof rx ry rz
    limits (-20.0 45.0)
           (-30.0 30.0)
           (-30.0 30.0)
  end
  begin
     id 14 
     name lowerneck
     direction -0.0672491 0.995415 0.068018   
     length 1.58923   
     axis 0 0 0   XYZ
    dof rx ry rz
    limits (-20.0 45.0)
           (-30.0 30.0)
           (-30.0 30.0)
  end
  begin
     id 15 
     name upperneck
     direction 0.0958019 0.982476 -0.159884   
     length 1.60189   
     axis 0 0 0   XYZ
    dof rx ry rz
    limits (-20.0 45.0)
           (-30.0 30.0)
           (-30.0 30.0)
  end
  begin
     id 16
     name head
     direction 0.032989 0.997338 -0.0650226  
     length 1.61681  
     axis 0 0 0   XYZ
    dof rx ry rz
    limits (-20.0 45.0)
           (-30.0 30.0)
           (-30.0 30.0)
  end
  begin
     id 17 
     name lclavicle
     direction 0.954279 0.298875 -0.00496069  
     length 2.99449  
     axis 0 0 0   XYZ
    dof ry rz
    limits (-20.0 10.0)
           (0.0 20.0)
  end
  begin
     id 18 
     name lhumerus
     direction 1 -4.48985e-011 -4.2057e-027   
     length 4.79185   
     axis 180 -30 -90   XYZ
    dof rx ry rz
    limits (-60.0 90.0)
           (-90.0 90.0)
           (-90.0 90.0)
  end
  begin
     id 19
     name lradius
     direction 1 -4.48945e-011 1.15441e-028   
     length 2.65553   
     axis 180 -30 -90   XYZ
    dof rx
    limits (-10.0 170.0)
  end
  begin
     id 20
     name lwrist
     direction 1 -4.4899e-011 4.8894e-028   
     length 1.32777   
     axis -2.56392e-016 90 90   XYZ
    dof ry
    limits (-180.0 0.0)
 end
  begin
     id 21 
     name lhand
     direction 1 -4.48908e-011 9.7788e-028   
     length 0.743904   
     axis -6.23971e-016 90 90   XYZ
    dof rx rz
    limits (-90.0 90.0)
           (-45.0 45.0)
  end
  begin
     id 22 
     name lfingers
     direction 1 -4.49068e-011 1.95576e-027   
     length 0.599754   
     axis -1.24794e-015 90 90   XYZ
    dof rx
    limits (0.0 90.0)
  end
  begin
     id 23
     name lthumb
     direction 0.707107 -6.34883e-011 0.707107   
     length 0.861131   
     axis -90 45 2.85299e-015   XYZ
    dof rx rz
    limits (-45.0 45.0)
           (-45.0 45.0)
  end
  begin
     id 24 
     name rclavicle
     direction -0.957921 0.286916 0.00811568   
     length 3.06817  
     axis 0 0 0   XYZ 
    dof ry rz
    limits (-10.0 20.0)
           (-20.0 0.0)
  end
  begin
     id 25 
     name rhumerus
     direction -1 -4.48971e-011 -3.07942e-027  
     length 4.77254   
     axis 180 30 90   XYZ
    dof rx ry rz
    limits (-90.0 60.0)
           (-90.0 90.0)
           (-90.0 90.0)
  end
  begin
     id 26 
     name rradius
     direction -1 -4.48957e-011 -9.6815e-028   
     length 2.75995   
     axis 180 30 90   XYZ
    dof rx
    limits (-10.0 170.0)
  end
  begin
     id 27 
     name rwrist
     direction -1 -4.48979e-011 4.8894e-028   
     length 1.37997   
     axis -2.56392e-016 -90 -90   XYZ
    dof ry
    limits (-180.0 0.0)
  end
  begin
     id 28
     name rhand
     direction -1 -4.48906e-011 9.7788e-028   
     length 0.701619   
     axis -6.23971e-016 -90 -90   XYZ
    dof rx rz
    limits (-90.0 90.0)
           (-45.0 45.0)
  end
  begin
     id 29
     name rfingers
     direction -1 -4.49018e-011 1.95576e-027   
     length 0.565663   
     axis -1.24794e-015 -90 -90   XYZ
    dof rx
    limits (0.0 90.0)
  end
  begin
     id 30
     name rthumb
     direction -0.707107 -6.34881e-011 0.707107   
     length 0.812183   
     axis -90 -45 -2.85299e-015   XYZ
    dof rx rz
    limits (-45.0 45.0)
           (-45.0 45.0)
  end
:hierarchy
  begin
    root lhipjoint rhipjoint lowerback
    lhipjoint lfemur
    lfemur ltibia
    ltibia lfoot
    lfoot ltoes
    rhipjoint rfemur
    rfemur rtibia
    rtibia rfoot
    rfoot rtoes
    lowerback upperback
    upperback thorax
    thorax lowerneck lclavicle rclavicle
    lowerneck upperneck
    upperneck head
    lclavicle lhumerus
    lhumerus lradius
    lradius lwrist
    lwrist lhand lthumb
    lhand lfingers
    rclavicle rhumerus
    rhumerus rradius
    rradius rwrist
    rwrist rhand rthumb
    rhand rfingers
  end

#!OML:ASF F:\VICON\USERDATA\INSTALL\rory3\rory3.ASF
:FULLY-SPECIFIED
:DEGREES
1402
root 0.726298 16.1588 -0.375442 1.22289 -1.05703 2.43936
lowerback 7.1361 -0.593327 -0.0180625
upperback -3.67147 -0.519592 3.80236
thorax -7.84957 -0.139551 4.10513
lowerneck -3.0123 -14.5988 -16.7387
upperneck 25.1267 -22.5332 13.3364
head 12.2847 -10.7326 4.50097
rclavicle -7.95139e-016 6.36111e-015
rhumerus 4.98735 6.35046 -70.2498
rradius 51.1543
rwrist 14.3941
rhand -26.4278 15.8327
rfingers 7.12502
rthumb 0.132553 -14.147
lclavicle -7.95139e-016 6.36111e-015
lhumerus 5.60431 -28.7188 65.2624
lradius 34.1054
lwrist -9.79274
lhand -22.9192 10.4044
lfingers 7.12502
lthumb 3.52109 40.3551
rfemur -4.63136 13.6696 12.1564
rtibia 17.722
rfoot -11.1115 -15.3513
rtoes -7.07791
lfemur 4.44866 -7.2922 -21.4986
ltibia 0
lfoot -2.97914 8.91788
ltoes -7.53464
1403
root 0.753299 16.1597 -0.370621 1.24965 -1.50953 2.60765
lowerback 7.09465 -0.747179 0.085315
upperback -3.66108 -0.697818 4.06693
thorax -7.8013 -0.225311 4.35222
lowerneck -2.47643 -14.7949 -16.8202
upperneck 24.6447 -22.8237 13.364
head 12.0563 -10.9054 4.50254
rclavicle 1.49089e-015 1.59028e-014
rhumerus 4.98576 4.49822 -70.0098
rradius 50.9807
rwrist 14.2658
rhand -26.4593 15.9324
rfingers 7.12502
rthumb 0.1021 -14.0474
lclavicle 1.49089e-015 1.59028e-014
lhumerus 6.0825 -28.3642 65.2477
lradius 33.5561
lwrist -9.68364
lhand -22.643 10.4615
lfingers 7.12502
lthumb 3.78787 40.4076
rfemur -4.8856 13.7985 11.8224
rtibia 17.8962
rfoot -11.0348 -15.1734
rtoes -8.69139
lfemur 4.48173 -6.86504 -21.7829
ltibia 1.03368e-014
lfoot -3.01901 8.9002
ltoes -7.09612
1404
root 0.783092 16.1589 -0.368781 1.26599 -2.01826 2.81304
lowerback 7.11085 -0.899774 0.250479
upperback -3.64659 -0.871376 4.26886
thorax -7.78285 -0.313586 4.49817
lowerneck -2.0734 -14.9738 -16.8622
upperneck 24.2236 -23.1129 13.4841
head 11.8885 -11.0581 4.52387
rclavicle 4.07509e-015 -1.59028e-015
rhumerus 4.91447 2.63129 -69.8099
rradius 50.915
rwrist 13.9148
rhand -26.2784 15.2557
rfingers 7.12502
rthumb 0.27686 -14.7238
lclavicle 4.07509e-015 -1.59028e-015
lhumerus 6.5536 -28.1214 65.1091
lradius 33.0572
lwrist -9.45121
lhand -22.3248 10.7656
lfingers 7.12502
lthumb 4.09515 40.706
rfemur -5.07562 13.9163 11.426
rtibia 18.0014
rfoot -11.2155 -14.8183
rtoes -7.36503
lfemur 4.51898 -6.38242 -22.1078
ltibia 8.74653e-015
lfoot -3.12582 8.86237
ltoes -6.17468
1405
root 0.809937 16.1558 -0.36509 1.21479 -2.55212 2.86348
lowerback 7.18152 -1.06563 0.500798
upperback -3.60348 -1.04726 4.55537
thorax -7.7655 -0.405145 4.68792
lowerneck -1.7445 -15.1212 -16.8749
upperneck 23.8245 -23.3293 13.535
head 11.7177 -11.1775 4.52599
rclavicle -3.47873e-014 5.725e-014
rhumerus 4.84243 0.955879 -69.4706
rradius 50.8353
rwrist 13.2501
rhand -25.8834 14.6775
rfingers 7.12502
rthumb 0.65833 -15.3013
lclavicle -3.47873e-014 5.725e-014
lhumerus 6.95433 -27.7651 65.0595
lradius 32.5381
lwrist -9.34495
lhand -21.858 11.1898
lfingers 7.12502
lthumb 4.54592 41.121
rfemur -5.17736 14.1795 11.2457
rtibia 18.0701
rfoot -11.4747 -14.5784
rtoes -5.43505
lfemur 4.64825 -5.86892 -22.2542
ltibia -6.36111e-015
lfoot -3.27118 8.78201
ltoes -5.75306
1406
root 0.834328 16.1547 -0.361675 1.19346 -3.13532 2.91272
lowerback 7.26461 -1.2256 0.702688
upperback -3.56842 -1.21655 4.88344
thorax -7.76286 -0.489466 4.95061
lowerneck -1.49815 -15.2805 -16.8171
upperneck 23.4808 -23.5041 13.374
head 11.5367 -11.2842 4.44591
rclavicle 4.57205e-015 -3.65764e-014
rhumerus 4.81448 -0.583187 -69.0203
rradius 50.6348
rwrist 12.4353
rhand -25.5735 14.6814
rfingers 7.12502
rthumb 0.957626 -15.2962
lclavicle 4.57205e-015 -3.65764e-014
lhumerus 7.3202 -27.3139 65.0713
lradius 31.9967
lwrist -9.36731
lhand -21.6434 11.2041
lfingers 7.12502
lthumb 4.75306 41.1308
rfemur -5.36389 14.4893 11.083
rtibia 18.0973
rfoot -11.3455 -14.5069
rtoes -5.86111
lfemur 4.74059 -5.30753 -22.3785
ltibia 1.59028e-015
lfoot -3.41371 8.72122
ltoes -5.68512
1407
root 0.861535 16.1546 -0.359744 1.24436 -3.86826 2.92269
lowerback 7.32507 -1.34026 0.97098
upperback -3.54054 -1.31685 5.23377
thorax -7.76098 -0.542754 5.1906
lowerneck -1.30921 -15.4466 -16.7844
upperneck 23.1523 -23.6693 13.1741
head 11.3697 -11.3878 4.35399
rclavicle -1.67973e-014 6.83819e-014
rhumerus 4.76033 -2.04724 -68.4764
rradius 50.4396
rwrist 11.601
rhand -25.6756 14.522
rfingers 7.12502
rthumb 0.859102 -15.456
lclavicle -1.67973e-014 6.83819e-014
lhumerus 7.6586 -26.9655 65.0644
lradius 31.5237
lwrist -9.34399
lhand -21.6597 11.3212
lfingers 7.12502
lthumb 4.73734 41.2482
rfemur -5.66846 14.7967 10.9021
rtibia 18.0702
rfoot -10.9851 -14.3221
rtoes -7.02486
lfemur 4.75917 -4.59829 -22.473
ltibia 7.95139e-015
lfoot -3.48679 8.62759
ltoes -5.52639
1408
root 0.889734 16.1547 -0.36116 1.31618 -4.71928 2.94095
lowerback 7.34206 -1.42462 1.23549
upperback -3.46448 -1.38256 5.56849
thorax -7.68475 -0.581071 5.40777
lowerneck -1.22149 -15.6184 -16.7857
upperneck 22.9634 -23.8506 12.9742
head 11.2835 -11.4921 4.25546
rclavicle 1.18277e-014 -3.97569e-014
rhumerus 4.70771 -3.54449 -67.9709
rradius 50.3519
rwrist 10.8143
rhand -26.1257 14.2759
rfingers 7.12502
rthumb 0.424383 -15.7035
lclavicle 1.18277e-014 -3.97569e-014
lhumerus 8.02766 -26.6506 64.9716
lradius 31.0989
lwrist -9.33393
lhand -21.408 11.5619
lfingers 7.12502
lthumb 4.98036 41.4834
rfemur -6.01516 15.1098 10.6762
rtibia 18.035
rfoot -10.5818 -13.9677
rtoes -8.65043
lfemur 4.75482 -3.77256 -22.568
ltibia -1.03368e-014
lfoot -3.55451 8.46087
ltoes -5.25471
1409
root 0.920135 16.1552 -0.36029 1.3924 -5.50164 2.95399
lowerback 7.36471 -1.5379 1.57907
upperback -3.37146 -1.48166 5.87941
thorax -7.59316 -0.640831 5.55849
lowerneck -1.24682 -15.7964 -16.7535
upperneck 22.8365 -24.0323 12.7532
head 11.2342 -11.5877 4.13596
rclavicle 1.33186e-014 6.36111e-015
rhumerus 4.77058 -5.23798 -67.6442
rradius 50.141
rwrist 10.0095
rhand -26.3997 14.194
rfingers 7.12502
rthumb 0.159689 -15.7857
lclavicle 1.33186e-014 6.36111e-015
lhumerus 8.41835 -26.218 64.8731
lradius 30.6676
lwrist -9.48345
lhand -21.1431 11.2308
lfingers 7.12502
lthumb 5.23621 41.1461
rfemur -6.3481 15.3586 10.4601
rtibia 18.0384
rfoot -10.3592 -13.5639
rtoes -10.1688
lfemur 4.75018 -3.01562 -22.659
ltibia 8.74653e-015
lfoot -3.59918 8.29186
ltoes -4.79995
1410
root 0.952729 16.1546 -0.357297 1.45818 -6.28652 3.03458
lowerback 7.54719 -1.63992 1.92069
upperback -3.37793 -1.55249 6.17212
thorax -7.70474 -0.683053 5.70105
lowerneck -0.946376 -15.9054 -16.8155
upperneck 22.3432 -24.1409 12.7219
head 11.0139 -11.6691 4.14124
rclavicle -1.31695e-015 -6.67916e-014
rhumerus 4.77583 -7.4495 -67.4688
rradius 49.7688
rwrist 10.035
rhand -26.2661 14.0885
rfingers 7.12502
rthumb 0.288721 -15.891
lclavicle -1.31695e-015 -6.67916e-014
lhumerus 8.61491 -25.765 64.9491
lradius 30.27
lwrist -9.85017
lhand -21.3358 10.9881
lfingers 7.12502
lthumb 5.05016 40.9079
rfemur -6.68376 15.5382 10.155
rtibia 18.058
rfoot -10.4115 -13.0732
rtoes -9.4774
lfemur 4.75245 -2.25744 -22.8392
ltibia -1.43125e-014
lfoot -3.64647 8.09441
ltoes -4.23829
1411
root 0.984307 16.154 -0.354815 1.53735 -7.16671 3.24493
lowerback 7.69716 -1.7029 2.07759
upperback -3.37092 -1.59331 6.45488
thorax -7.78053 -0.70228 5.93297
lowerneck -0.456496 -15.9862 -16.9523
upperneck 21.6383 -24.2274 12.8183
head 10.7078 -11.7507 4.2236
rclavicle 9.98893e-015 1.90833e-014
rhumerus 4.79738 -10.114 -67.4068
rradius 49.3639
rwrist 11.1904
rhand -25.9681 14.0825
rfingers 7.12502
rthumb 0.576585 -15.8964
lclavicle 9.98893e-015 1.90833e-014
lhumerus 8.84199 -25.3565 65.0147
lradius 29.8842
lwrist -10.0922
lhand -21.5673 11.1635
lfingers 7.12502
lthumb 4.82662 41.0885
rfemur -7.1066 15.746 9.68046
rtibia 18.0706
rfoot -10.185 -12.539
rtoes -10.1537
lfemur 4.71843 -1.40959 -23.1537
ltibia 1.98785e-014
lfoot -3.79274 7.91394
ltoes -3.82943
1412
root 1.01367 16.1494 -0.351233 1.57421 -8.11457 3.48507
lowerback 7.77962 -1.74042 2.19281
upperback -3.28456 -1.61621 6.70126
thorax -7.73214 -0.71434 6.1391
lowerneck -0.0453605 -16.1225 -17.0701
upperneck 21.0259 -24.4074 12.9383
head 10.4714 -11.8641 4.28606
rclavicle -3.97725e-015 -2.8625e-014
rhumerus 4.87458 -12.417 -67.1829
rradius 48.9143
rwrist 12.1254
rhand -25.8592 14.0333
rfingers 7.12502
rthumb 0.681753 -15.9453
lclavicle -3.97725e-015 -2.8625e-014
lhumerus 9.24408 -25.3144 64.8008
lradius 29.5646
lwrist -9.97783
lhand -21.4225 11.3176
lfingers 7.12502
lthumb 4.96637 41.2394
rfemur -7.54576 16.1267 9.18122
rtibia 18.141
rfoot -9.65849 -12.0929
rtoes -14.0016
lfemur 4.73158 -0.493813 -23.4947
ltibia 0
lfoot -3.92863 7.68432
ltoes -3.75841
1413
root 1.04466 16.1452 -0.345209 1.58877 -9.02586 3.62877
lowerback 7.91093 -1.81493 2.46083
upperback -3.21498 -1.66653 6.96083
thorax -7.73216 -0.746336 6.28079
lowerneck 0.275257 -16.2474 -17.1773
upperneck 20.5935 -24.5736 12.9906
head 10.3062 -11.9672 4.31782
rclavicle 1.09829e-014 1.90833e-014
rhumerus 4.80899 -14.1026 -66.6705
rradius 48.4864
rwrist 12.3769
rhand -25.9726 14.0825
rfingers 7.12502
rthumb 0.572226 -15.8965
lclavicle 1.09829e-014 1.90833e-014
lhumerus 9.63723 -24.8916 64.7284
lradius 28.9942
lwrist -10.2157
lhand -21.2835 11.0205
lfingers 7.12502
lthumb 5.10065 40.9391
rfemur -7.91848 16.5047 8.80369
rtibia 18.2677
rfoot -9.81453 -11.6181
rtoes -13.9109
lfemur 4.78711 0.389567 -23.7325
ltibia 8.74653e-015
lfoot -4.05703 7.46486
ltoes -3.08389
1414
root 1.07349 16.1451 -0.33926 1.56143 -9.8776 3.75716
lowerback 8.11701 -1.92051 2.74713
upperback -3.14382 -1.74998 7.22922
thorax -7.77151 -0.794583 6.43184
lowerneck 0.581539 -16.3298 -17.2407
upperneck 20.131 -24.6486 12.9477
head 10.0985 -12.0326 4.33033
rclavicle 2.23136e-014 -9.54166e-015
rhumerus 4.65356 -15.434 -66.026
rradius 48.1688
rwrist 12.3558
rhand -26.0457 13.8259
rfingers 7.12502
rthumb 0.501618 -16.1533
lclavicle 2.23136e-014 -9.54166e-015
lhumerus 10.0645 -24.1325 64.8224
lradius 28.2381
lwrist -10.7004
lhand -21.4354 10.5736
lfingers 7.12502
lthumb 4.95398 40.4957
rfemur -8.24503 16.7293 8.5048
rtibia 18.3968
rfoot -10.1508 -11.1565
rtoes -11.6723
lfemur 4.87796 1.2161 -23.9376
ltibia 3.97569e-015
lfoot -4.19765 7.27329
ltoes -2.36272
1415
root 1.10059 16.1449 -0.333128 1.55437 -10.7339 3.90157
lowerback 8.34802 -2.00392 3.00597
upperback -3.11076 -1.8022 7.47616
thorax -7.86906 -0.82558 6.57603
lowerneck 0.829054 -16.3981 -17.1689
upperneck 19.742 -24.677 12.7532
head 9.88096 -12.074 4.28123
rclavicle 2.04748e-014 -1.90833e-014
rhumerus 4.33544 -16.5877 -65.2557
rradius 47.8778
rwrist 12.2106
rhand -25.7204 13.5559
rfingers 7.12502
rthumb 0.815785 -16.4223
lclavicle 2.04748e-014 -1.90833e-014
lhumerus 10.443 -23.5203 64.8606
lradius 27.6304
lwrist -11.1298
lhand -21.5165 10.081
lfingers 7.12502
lthumb 4.87567 40.0049
rfemur -8.6259 16.9972 8.18395
rtibia 18.5353
rfoot -10.1919 -10.7569
rtoes -11.4196
lfemur 4.9363 2.04458 -24.1458
ltibia 1.03368e-014
lfoot -4.29181 7.02757
ltoes -2.14078
